inDegrees=no
num_controls=7
num_derivatives=13
num_iterations=178
num_multipliers=7
num_parameters=0
num_slacks=7
num_states=26
objective=6.026581
objective_accelerations=0.623237
objective_balance=0.047814
objective_effort=0.576167
objective_height=4.755587
objective_ligament=0.023777
solver_duration=1872.033525
status=Solve_Succeeded
success=true
DataType=double
version=3
OpenSimVersion=4.4-2022-07-23-0e9fedc
endheader
time	/jointset/ground_pelvis/pelvis_tilt/value	/jointset/ground_pelvis/pelvis_tx/value	/jointset/ground_pelvis/pelvis_ty/value	/jointset/hip_l/hip_flexion_l/value	/jointset/hip_l/hip_adduction_l/value	/jointset/hip_l/hip_rotation_l/value	/jointset/back/lumbar_extension/value	/jointset/patellofemoral_l/patellar_flexion_l/value	/jointset/knee_l/knee_flexion_l/value	/jointset/knee_l/knee_adduction_l/value	/jointset/knee_l/knee_rotation_l/value	/jointset/ankle_l/ankle_angle_l/value	/jointset/subtalar_l/subtalar_angle_l/value	/jointset/ground_pelvis/pelvis_tilt/speed	/jointset/ground_pelvis/pelvis_tx/speed	/jointset/ground_pelvis/pelvis_ty/speed	/jointset/hip_l/hip_flexion_l/speed	/jointset/hip_l/hip_adduction_l/speed	/jointset/hip_l/hip_rotation_l/speed	/jointset/back/lumbar_extension/speed	/jointset/patellofemoral_l/patellar_flexion_l/speed	/jointset/knee_l/knee_flexion_l/speed	/jointset/knee_l/knee_adduction_l/speed	/jointset/knee_l/knee_rotation_l/speed	/jointset/ankle_l/ankle_angle_l/speed	/jointset/subtalar_l/subtalar_angle_l/speed	/forceset/tau_hip_flexion_l	/forceset/tau_hip_adduction_l	/forceset/tau_hip_rotation_l	/forceset/tau_knee_flexion_l	/forceset/tau_ankle_angle_l	/forceset/tau_subtalar_angle_l	/forceset/tau_lumbar_extension	lambda_cid13_p0	lambda_cid13_p1	lambda_cid13_p2	lambda_cid13_p3	lambda_cid13_p4	lambda_cid13_p5	lambda_cid14_p0	/jointset/ground_pelvis/pelvis_tilt/accel	/jointset/ground_pelvis/pelvis_tx/accel	/jointset/ground_pelvis/pelvis_ty/accel	/jointset/hip_l/hip_flexion_l/accel	/jointset/hip_l/hip_adduction_l/accel	/jointset/hip_l/hip_rotation_l/accel	/jointset/back/lumbar_extension/accel	/jointset/patellofemoral_l/patellar_flexion_l/accel	/jointset/knee_l/knee_flexion_l/accel	/jointset/knee_l/knee_adduction_l/accel	/jointset/knee_l/knee_rotation_l/accel	/jointset/ankle_l/ankle_angle_l/accel	/jointset/subtalar_l/subtalar_angle_l/accel	gamma_cid13_p0	gamma_cid13_p1	gamma_cid13_p2	gamma_cid13_p3	gamma_cid13_p4	gamma_cid13_p5	gamma_cid14_p0
0	-0.03667387900971962	0.05661273892019218	0.9203442263800352	0.3085811930696054	-0.2955985688724899	-0.3006756906295984	-0.3879500408040475	0.2499276582270964	0.249927658227084	-0.1745329251994329	-0.1736192043094529	-0.0008036543073733089	0.0004690884355324139	0	0	0	0	0	0	0	0	0	0	0	0	0	0.08301546635238703	-0.04069869707657616	-0.01887267697342826	-0.2345336481085299	0.1585909375142976	-0.01843022361185864	-0.0127255550796047	7.42733256839996	3.887243812280409	2.143114497418387	28.15725255270225	-612.8181104341415	-68.73188412093828	-23.16590965599972	-1.985674585985566	-2.645479957090188	-1.098122331332412	11.17413870684889	-0.9314750476194181	3.33123919072595	-7.749947305312324	9.415744275536554	9.41574427553684	1.078554015717345	-0.1542415410987599	0.6530066965139092	-0.7802409024913781	5.915976341690437e-09	1.575278785071191e-07	7.407637315357019e-08	-2.279329386418208e-08	1.69472624027626e-07	3.231265854426051e-08	-1.376945826902502e-09
0.01	-0.03676837332649686	0.05648258730260474	0.9202905148039913	0.3091262204340115	-0.2956452466603725	-0.3005087787626672	-0.3883358735902077	0.2503890648699054	0.2503890648698638	-0.1744825267246421	-0.1736237137746594	-0.0007720669622215149	0.0004295966478617985	-0.01880962428602457	-0.025839652548897	-0.0106961870768154	0.1084138746766536	-0.009270626529332878	0.03321748042555214	-0.07658302234518999	0.09184571502344788	0.09184571502345372	0.01005984126037217	-0.0008899992114699242	0.006378842137079574	-0.007808132998219988	0.07718224687777746	-0.04937864426350669	-0.01827678925268278	-0.2313318253544991	0.154016855600702	-0.007177735219329886	-0.006759591354426291	6.270549481741107	-0.7162231740350931	2.784575354809471	26.53272117640097	-615.9979044617247	-77.86769662238635	-23.17142930127332	-1.815230903787107	-2.524611817994796	-1.048413781550734	10.58626501510106	-0.9151492052412624	3.292264248592927	-7.524949465534408	9.003643360983952	9.003643360984599	0.966677916524981	-0.05458672941583641	0.6395337487664906	-0.7675997215535602	-2.707783166530289e-08	1.5583397269182e-07	1.446965747094522e-07	1.016178247901349e-08	3.171819940342901e-08	-7.836096678618739e-09	-1.029613468019558e-08
0.02	-0.03704828879692271	0.0560997583766862	0.92013123198004	0.3107376371785879	-0.2957826892634837	-0.3000146397354607	-0.3894700305531059	0.2517558603119676	0.2517558603119656	-0.1743321315837582	-0.1736367647556722	-0.0006748490404076434	0.0003147234855957226	-0.03708423072705758	-0.05053546166621923	-0.02111424958144698	0.2132778760343876	-0.01815296304472456	0.06544543205602359	-0.1496648353468166	0.1810777598562997	0.1810777598563105	0.01999883193386561	-0.001708303152729032	0.01312611533261738	-0.01507627491908858	0.07134902740326189	-0.0580585914503809	-0.01768090153170063	-0.2281300026004286	0.1494427736871514	0.0040747531732696	-0.0007936276292211275	5.187320446748924	-5.331086650930647	3.426159474926831	24.84943610945236	-618.0370377629159	-86.91821501121854	-23.18763247652933	-1.878671016986925	-2.416711270775532	-1.042497416895655	10.46416404306503	-0.8538170448311667	3.13333343170979	-7.049705436599456	8.8930102374174	8.893010237417512	1.054383898341639	-0.1399024870566447	0.726692908205226	-0.6722426870212026	-6.007163967229623e-08	1.541400668765209e-07	2.153167762653342e-07	4.311685882220905e-08	-1.06036225220768e-07	-4.798485190149799e-08	-1.921532353348866e-08
0.03	-0.03750843128681012	0.05547539069183394	0.9198688423635013	0.3133807559331296	-0.2960069073910256	-0.2992034914084928	-0.3913178719847646	0.2540021610131785	0.2540021610132022	-0.1740829355297898	-0.1736579543836624	-0.0005087321166312277	0.000129833377794763	-0.05484030183381879	-0.07417714819907426	-0.03134401838574431	0.314795288030895	-0.02662489154803445	0.09663105479398679	-0.2193913649403715	0.2677635197288702	0.2677635197288818	0.02979769813594397	-0.002508965364826009	0.02011808750895688	-0.02182541196900548	0.06444810317572089	-0.05173844174767374	-0.01696838190793799	-0.2232825047071377	0.1467619088373146	0.001719914536455667	0.005480427873073905	4.211640700771956	-4.20190359941548	3.319649077357246	24.14415867612255	-619.4727890087128	-83.60757145697787	-23.21379552277969	-1.708488396913472	-2.313749523061762	-1.010290074957465	9.912930981218571	-0.8340594627906468	3.088172587777557	-6.857313813569583	8.493533642396386	8.493533642396315	0.9362795709696029	-0.04701576626026325	0.6885726630129267	-0.6648480209945857	-8.22677432199459e-08	1.480157718256234e-07	2.692338401975299e-07	6.47263443603564e-08	-2.014990615981662e-07	-7.647294250886095e-08	-2.629754143678609e-08
